<?xml version="1.0" encoding="UTF-8"?>
<svg id="Layer_1" data-name="Layer 1" xmlns="http://www.w3.org/2000/svg" viewBox="0 0 309.68 293.26">
  <defs>
    <style>
      .cls-1 {
        font-family: HelveticaNeue-Bold, 'Helvetica Neue';
        font-size: 72px;
        font-weight: 700;
      }

      .cls-1, .cls-2 {
        fill: #168638;
      }

      .cls-2 {
        stroke-width: 0px;
      }
    </style>
  </defs>
  <path class="cls-2" d="M171.56,162.28c14.76-.47,25.25-7.29,33.45-18.35,13.82-18.67,14.28-55.09-2.31-74.25-8.36-9.66-18.75-15.77-31.37-16.35-16.26-.74-32.57-.18-49.16-.18v91.4c12.68,1.57,20.68-5.33,20.63-17.57-.02-5.83-.03-11.66-.03-17.5,0-5.32.63-10.2-4.9-14.39-5.31-4.03-3.77-12.91,1.57-17.09,5.2-4.07,13.53-3.12,17.49,1.99,4.17,5.38,3.49,13.67-2.25,17.18-3.57,2.19-3.89,4.7-3.83,8.13.12,7.66-.31,15.35.1,22.99.66,12.09-7.08,22.79-20.14,24.38-12.8,1.55-25.9.74-38.87.88-3.66.04-3.04-2.86-3.05-5.07-.05-13.33-.03-26.66-.03-39.99,0-27.66,0-55.32,0-82.99,0-6.62.05-6.61,6.75-6.61,24.66,0,49.33-.35,73.98.04,35.22.56,63.18,20.07,74.52,53.49,10.86,32,8.86,63.33-11.57,91.52-15.88,21.91-38.38,32.3-65.12,32.91-24.32.55-48.66.07-72.99.2-4.17.02-5.67-1.74-5.61-5.67.11-7.16.21-14.33.03-21.49-.1-3.82,1.17-5.22,5.14-5.23,16.66-.05,33.32-.76,49.97-.52,14.46.2,23.09-7.3,29.11-19.41,3.62-7.3,3.92-15.05,3.45-22.85-.1-1.57-2.5-3.08-3.97-4.48-4.05-3.87-5.18-10.53-2.45-15.06,2.92-4.86,9.19-7.08,14.81-5.24,5.01,1.64,8.77,7.03,7.75,12.49-.54,2.88-2.09,6.34-4.33,7.96-3.1,2.24-3.76,4.6-3.52,7.94.8,11.13-1.65,21.44-8.19,30.61-1.41,1.98-3.08,3.77-5.06,6.18Z"/>
  <text class="cls-1" transform="translate(15.4 266.52)"><tspan x="0" y="0">Deeploy</tspan></text>
</svg>