<?xml version="1.0" encoding="UTF-8" standalone="no"?>
<svg
   id="Layer_1"
   data-name="Layer 1"
   viewBox="0 0 193.62024 193.62023"
   version="1.1"
   sodipodi:docname="DeeployIconGreen.svg"
   width="193.62024"
   height="193.62024"
   inkscape:export-filename="DeeployIconGreen-180x180.png"
   inkscape:export-xdpi="89.246872"
   inkscape:export-ydpi="89.246872"
   inkscape:version="1.4.2 (ebf0e940, 2025-05-08)"
   xmlns:inkscape="http://www.inkscape.org/namespaces/inkscape"
   xmlns:sodipodi="http://sodipodi.sourceforge.net/DTD/sodipodi-0.dtd"
   xmlns="http://www.w3.org/2000/svg"
   xmlns:svg="http://www.w3.org/2000/svg">
  <sodipodi:namedview
     id="namedview1"
     pagecolor="#505050"
     bordercolor="#eeeeee"
     borderopacity="1"
     inkscape:showpageshadow="0"
     inkscape:pageopacity="0"
     inkscape:pagecheckerboard="0"
     inkscape:deskcolor="#505050"
     inkscape:zoom="2.2724898"
     inkscape:cx="73.487679"
     inkscape:cy="140.15465"
     inkscape:window-width="1512"
     inkscape:window-height="916"
     inkscape:window-x="0"
     inkscape:window-y="38"
     inkscape:window-maximized="1"
     inkscape:current-layer="Layer_1" />
  <defs
     id="defs1">
    <style
       id="style1">
      .cls-1 {
        font-family: HelveticaNeue-Bold, 'Helvetica Neue';
        font-size: 72px;
        font-weight: 700;
      }

      .cls-1, .cls-2 {
        fill: #168638;
      }

      .cls-2 {
        stroke-width: 0px;
      }
    </style>
  </defs>
  <path
     class="cls-2"
     d="m 98.652087,151.15688 c 14.760003,-0.47 25.250003,-7.29 33.450003,-18.35 13.82,-18.67 14.28,-55.089998 -2.31,-74.249998 -8.36,-9.66 -18.75,-15.77 -31.370003,-16.35 -16.26,-0.74 -32.57,-0.18 -49.16,-0.18 v 91.399998 c 12.68,1.57 20.68,-5.33 20.63,-17.57 -0.02,-5.83 -0.03,-11.66 -0.03,-17.499999 0,-5.32 0.63,-10.2 -4.9,-14.39 -5.31,-4.029999 -3.77,-12.909999 1.57,-17.089999 5.2,-4.07 13.53,-3.12 17.49,1.99 4.17,5.38 3.49,13.669999 -2.25,17.179999 -3.57,2.19 -3.89,4.7 -3.83,8.13 0.12,7.659999 -0.31,15.349999 0.1,22.989999 0.66,12.09 -7.08,22.79 -20.14,24.38 -12.8,1.55 -25.9,0.74 -38.87,0.88 -3.66,0.04 -3.04,-2.86 -3.05,-5.07 -0.05,-13.33 -0.03,-26.66 -0.03,-39.989999 0,-27.659999 0,-55.319999 0,-82.989999 0,-6.6199999 0.05,-6.6099999 6.75,-6.6099999 24.66,0 49.33,-0.35 73.98,0.04 35.220003,0.56 63.180003,20.0699999 74.520003,53.4899999 10.86,31.999999 8.86,63.329998 -11.57,91.519998 -15.88,21.91 -38.38,32.3 -65.120003,32.91 -24.32,0.55 -48.66,0.07 -72.99,0.2 -4.17,0.02 -5.67,-1.74 -5.61,-5.67 0.11,-7.16 0.21,-14.33 0.03,-21.49 -0.1,-3.82 1.17,-5.22 5.14,-5.23 16.66,-0.05 33.32,-0.76 49.97,-0.52 14.46,0.2 23.09,-7.3 29.110003,-19.41 3.62,-7.3 3.92,-15.05 3.45,-22.85 -0.1,-1.57 -2.5,-3.08 -3.970003,-4.48 -4.05,-3.87 -5.18,-10.529999 -2.45,-15.059999 2.920003,-4.86 9.190003,-7.08 14.810003,-5.24 5.01,1.64 8.77,7.03 7.75,12.49 -0.54,2.879999 -2.09,6.339999 -4.33,7.959999 -3.1,2.24 -3.76,4.6 -3.52,7.94 0.8,11.13 -1.65,21.44 -8.19,30.61 -1.41,1.98 -3.08,3.77 -5.060003,6.18 z"
     id="path1" />
</svg>
